<svg xmlns="http://www.w3.org/2000/svg" version="1.1" xmlns:xlink="http://www.w3.org/1999/xlink"
     xmlns:svgjs="http://svgjs.dev/svgjs" width="1000" height="623" viewBox="0 0 1000 623">
    <g transform="matrix(1,0,0,1,-0.6060606060606233,0.2522267206477409)">
        <svg viewBox="0 0 396 247" data-background-color="#ffffff" preserveAspectRatio="xMidYMid meet" height="623"
             width="1000" xmlns="http://www.w3.org/2000/svg" xmlns:xlink="http://www.w3.org/1999/xlink">
            <defs></defs>
            <g id="tight-bounds" transform="matrix(1,0,0,1,0.2400000000000091,-0.09999999999999432)">
                <svg viewBox="0 0 395.52 247.2" height="247.2" width="395.52">
                    <g>
                        <svg></svg>
                    </g>
                    <g>
                        <svg viewBox="0 0 395.52 247.2" height="247.2" width="395.52">
                            <g transform="matrix(1,0,0,1,75.54432,94.19996525570417)">
                                <svg viewBox="0 0 244.43135999999998 58.80006948859165" height="58.80006948859165"
                                     width="244.43135999999998">
                                    <g>
                                        <svg viewBox="0 0 244.43135999999998 58.80006948859165"
                                             height="58.80006948859165" width="244.43135999999998">
                                            <g>
                                                <svg viewBox="0 0 244.43135999999998 58.80006948859165"
                                                     height="58.80006948859165" width="244.43135999999998">
                                                    <g>
                                                        <svg viewBox="0 0 244.43135999999998 58.80006948859165"
                                                             height="58.80006948859165" width="244.43135999999998">
                                                            <g>
                                                                <svg viewBox="0 0 244.43135999999998 58.80006948859165"
                                                                     height="58.80006948859165"
                                                                     width="244.43135999999998">
                                                                    <g>
                                                                        <svg viewBox="0 0 244.43135999999998 58.80006948859165"
                                                                             height="58.80006948859165"
                                                                             width="244.43135999999998">
                                                                            <g transform="matrix(1,0,0,1,0,0)">
                                                                                <svg width="244.43135999999998"
                                                                                     viewBox="-3.5199999809265137 -50.59000015258789 248.23001098632812 59.720001220703125"
                                                                                     height="58.80006948859165"
                                                                                     data-palette-color="">
                                                                                    <path d="M40.09-1.81L40.09-1.81Q40.09-1.32 40.04-1.07L40.04-1.07Q39.79-0.98 39.65-0.81 39.5-0.63 39.16-0.68L39.16-0.68Q39.06 0.05 38.67 0.54 38.28 1.03 37.87 1.44 37.45 1.86 37.06 2.32 36.67 2.78 36.57 3.52L36.57 3.52Q35.84 3.91 35.13 4.57 34.42 5.22 33.89 5.47L33.89 5.47Q33.5 5.66 33.06 5.79 32.62 5.91 32.18 6.1L32.18 6.1Q30.76 6.74 29.27 7.42 27.78 8.11 26.17 8.11L26.17 8.11 25.83 8.11Q25.63 8.3 25.34 8.37 25.05 8.45 24.76 8.5 24.46 8.54 24.17 8.64 23.88 8.74 23.73 8.94L23.73 8.94Q23.19 8.74 22.56 8.74L22.56 8.74 22.22 8.74Q21.39 8.94 20.65 9.03 19.92 9.13 19.09 9.13L19.09 9.13Q17.63 9.13 16.16 8.94 14.7 8.74 13.23 8.59L13.23 8.59Q12.3 7.86 11.72 6.76 11.13 5.66 11.13 4.44L11.13 4.44Q11.13 3.52 11.52 2.71 11.91 1.9 12.55 1.27L12.55 1.27 12.7 1.27Q13.13 1.27 13.6 1.07 14.06 0.88 14.5 0.88L14.5 0.88Q14.99 0.88 15.31 1.27 15.63 1.66 15.8 2.2 15.97 2.73 16.02 3.3 16.06 3.86 16.06 4.2L16.06 4.2Q16.6 4.44 17.21 4.49 17.82 4.54 18.46 4.54L18.46 4.54Q19.09 4.54 19.87 4.47 20.65 4.39 21.46 4.22 22.27 4.05 23.02 3.81 23.78 3.56 24.32 3.17L24.32 3.17Q27 2.93 29.05 1.95 31.1 0.98 33.4-0.34L33.4-0.34Q33.5-0.88 33.81-1.2 34.13-1.51 34.13-2.15L34.13-2.15Q34.13-2.25 34.11-2.37 34.08-2.49 34.08-2.59L34.08-2.59Q33.11-3.81 32.06-4.74 31.01-5.66 29.35-5.96L29.35-5.96Q29.15-6.4 28.71-6.62 28.27-6.84 27.78-7.03 27.29-7.23 26.86-7.45 26.42-7.67 26.22-8.2L26.22-8.2Q24.9-8.45 23.51-8.81 22.12-9.18 21.14-10.16L21.14-10.16Q20.36-10.21 19.65-10.47 18.95-10.74 18.26-11.01 17.58-11.28 16.85-11.5 16.11-11.72 15.33-11.72L15.33-11.72Q15.14-12.06 14.79-12.26 14.45-12.45 14.04-12.6 13.62-12.74 13.26-12.92 12.89-13.09 12.7-13.43L12.7-13.43Q12.5-13.38 12.4-13.23 12.3-13.09 12.06-13.09L12.06-13.09 11.87-13.09Q11.77-13.38 11.47-13.5 11.18-13.62 11.13-14.01L11.13-14.01Q10.25-14.06 9.55-14.36 8.84-14.65 8.23-15.01 7.62-15.38 6.98-15.72 6.35-16.06 5.57-16.26L5.57-16.26Q5.08-16.65 4.66-17.11 4.25-17.58 3.61-17.58L3.61-17.58Q3.47-17.58 3.08-17.48L3.08-17.48Q2.98-18.36 2.34-18.73 1.71-19.09 0.98-19.38L0.98-19.38Q0.49-20.65-0.34-21.63-1.17-22.61-2.15-23.44L-2.15-23.44Q-2.05-23.73-2.05-23.88L-2.05-23.88Q-2.05-24.37-2.29-24.73-2.54-25.1-2.83-25.34L-2.83-25.34Q-3.52-27.54-3.52-29.64L-3.52-29.64Q-3.52-32.57-2.22-35.08-0.93-37.6 1.86-38.87L1.86-38.87Q1.9-39.26 2.12-39.55 2.34-39.84 2.39-40.23L2.39-40.23Q2.83-40.23 3.08-40.43 3.32-40.63 3.54-40.84 3.76-41.06 4-41.26 4.25-41.46 4.64-41.5L4.64-41.5Q6.49-43.12 8.59-44.12 10.69-45.12 12.89-46.19L12.89-46.19Q13.33-46.39 13.62-46.92L13.62-46.92 13.92-46.92Q14.4-46.92 14.67-47.14 14.94-47.36 15.48-47.27L15.48-47.27Q15.67-47.56 15.99-47.66 16.31-47.75 16.63-47.83 16.94-47.9 17.24-48.05 17.53-48.19 17.63-48.49L17.63-48.49 17.97-48.49Q18.8-48.49 19.58-48.75 20.36-49.02 21.14-49.37L21.14-49.37 21.48-49.37Q22.46-49.37 23.32-49.73 24.17-50.1 25.15-50.24L25.15-50.24Q25.54-50.34 25.93-50.29 26.32-50.24 26.71-50.24L26.71-50.24Q26.95-50.24 27.29-50.29 27.64-50.34 27.78-50.59L27.78-50.59 27.88-50.59Q28.17-50.59 28.22-50.39 28.27-50.2 28.52-50.2L28.52-50.2Q28.86-50.2 29.2-50.29 29.54-50.39 29.88-50.39L29.88-50.39Q31.35-50.39 32.79-50.1 34.23-49.8 35.64-49.56L35.64-49.56Q35.74-48.97 36.16-48.73 36.57-48.49 37.06-48.29L37.06-48.29 37.06-48.1Q37.06-47.71 37.26-47.46L37.26-47.46Q37.06-46.78 36.57-46.44 36.08-46.09 35.5-45.85L35.5-45.85Q35.74-45.65 35.79-45.31 35.84-44.97 35.84-44.68L35.84-44.68 35.84-44.09 35.6-44.14Q34.81-44.14 34.81-43.41L34.81-43.41Q34.18-43.8 33.42-43.9 32.67-43.99 31.93-43.99L31.93-43.99Q30.96-43.99 29.88-43.92 28.81-43.85 27.78-43.95L27.78-43.95Q27.39-43.46 26.81-43.24 26.22-43.02 25.63-43.02L25.63-43.02Q25-43.02 24.41-43.29 23.83-43.55 23.58-44.09L23.58-44.09Q23.34-44.19 23.14-44.19L23.14-44.19 22.71-44.19Q21.92-44.19 21.17-44.02 20.41-43.85 19.63-43.63 18.85-43.41 18.09-43.19 17.33-42.97 16.55-42.92L16.55-42.92Q16.26-42.53 15.77-42.38 15.28-42.24 14.99-41.85L14.99-41.85Q13.96-41.65 13.13-41.19 12.3-40.72 11.52-40.19L11.52-40.19 10.01-39.16Q9.28-38.67 8.35-38.33L8.35-38.33Q7.67-37.6 7.08-37.16 6.49-36.72 5.57-36.38L5.57-36.38Q4.98-36.18 4.91-35.79 4.83-35.4 4.49-35.01L4.49-35.01Q4.2-34.67 3.78-34.5 3.37-34.33 3.08-33.94L3.08-33.94Q2.83-33.59 2.71-33.13 2.59-32.67 2.44-32.23 2.29-31.79 2.1-31.37 1.9-30.96 1.51-30.66L1.51-30.66Q1.51-30.47 1.49-30.27 1.46-30.08 1.46-29.93L1.46-29.93Q1.46-29.25 1.64-28.54 1.81-27.83 1.86-27.15L1.86-27.15Q2.83-25.44 4.15-24.05 5.47-22.66 6.98-21.48 8.5-20.31 10.13-19.29 11.77-18.26 13.38-17.29L13.38-17.29Q13.96-17.33 14.45-17.16 14.94-16.99 15.48-16.94L15.48-16.94Q16.06-16.5 16.85-16.26L16.85-16.26 18.41-15.77Q19.19-15.53 19.92-15.21 20.65-14.89 21.14-14.36L21.14-14.36Q21.39-14.31 21.58-14.23 21.78-14.16 22.02-14.16L22.02-14.16Q22.31-14.16 22.36-14.36L22.36-14.36Q24.56-13.53 26.66-12.52 28.76-11.52 31.1-10.99L31.1-10.99Q32.03-10.21 33.15-9.62 34.28-9.03 35.4-8.42 36.52-7.81 37.55-7.1 38.57-6.4 39.36-5.42L39.36-5.42Q39.45-4.49 39.77-3.64 40.09-2.78 40.09-1.81ZM73.63-31.05L73.63-31.05 73.63-30.86Q73.29-30.76 73.29-30.37L73.29-30.37Q72.75-30.13 72.17-30 71.58-29.88 71.04-29.64L71.04-29.64Q70.51-29.69 69.94-29.71 69.38-29.74 68.85-29.74L68.85-29.74Q67.38-29.74 65.92-29.64 64.45-29.54 62.99-29.64L62.99-29.64Q62.3-29.25 61.5-29.03 60.69-28.81 59.96-28.81L59.96-28.81Q59.37-28.81 58.93-28.96L58.93-28.96Q57.76-28.37 56.37-27.98 54.98-27.59 53.56-27.22 52.15-26.86 50.85-26.39 49.56-25.93 48.58-25.1L48.58-25.1Q48.48-24.41 48.44-23.75 48.39-23.1 48.39-22.46L48.39-22.46Q48.39-21.78 48.46-21.19 48.53-20.61 48.78-20.02L48.78-20.02Q49.02-19.92 49.34-19.87 49.66-19.82 49.9-19.82L49.9-19.82Q50.14-19.82 50.39-19.9 50.63-19.97 50.73-20.21L50.73-20.21Q51.46-20.31 52.19-20.29 52.93-20.26 53.66-20.26L53.66-20.26Q54.39-20.26 55.1-20.31 55.81-20.36 56.49-20.56L56.49-20.56Q57.27-20.75 58.03-20.8 58.79-20.85 59.52-20.9 60.25-20.95 61.03-21.07 61.81-21.19 62.64-21.58L62.64-21.58Q63.28-21.34 63.94-21.34 64.6-21.34 65.23-21.24L65.23-21.24Q65.57-21 65.79-20.7 66.01-20.41 66.01-20.02L66.01-20.02Q66.01-19.34 65.52-18.65 65.04-17.97 64.74-17.38L64.74-17.38 64.21-17.38Q63.03-17.38 61.94-17.07 60.84-16.75 59.74-16.33 58.64-15.92 57.54-15.6 56.44-15.28 55.27-15.28L55.27-15.28Q55.08-15.28 55.05-15.06 55.03-14.84 54.93-14.75L54.93-14.75Q54.69-14.79 54.2-14.79L54.2-14.79Q53.07-14.79 52.05-14.55 51.02-14.31 49.95-14.31L49.95-14.31Q49.66-14.31 49.36-14.33 49.07-14.36 48.78-14.4L48.78-14.4Q48.53-14.01 48.14-13.89 47.75-13.77 47.41-13.48L47.41-13.48Q47.26-13.04 47.24-12.4 47.21-11.77 47.19-11.11 47.17-10.45 47.07-9.86 46.97-9.28 46.68-8.94L46.68-8.94Q46.73-8.69 47.07-8.76 47.41-8.84 47.41-8.45L47.41-8.45Q47.41-8.01 47.31-7.52 47.21-7.03 47.21-6.54L47.21-6.54Q47.21-5.62 47.43-4.52 47.65-3.42 48.12-2.49 48.58-1.56 49.36-0.95 50.14-0.34 51.32-0.34L51.32-0.34Q52.1-0.34 52.78-0.63 53.46-0.93 53.9-1.61L53.9-1.61 54.15-1.66Q54.34-1.66 54.51-1.61 54.69-1.56 54.88-1.56L54.88-1.56Q55.17-1.56 55.64-1.93 56.1-2.29 56.66-2.78 57.22-3.27 57.81-3.74 58.4-4.2 58.93-4.39L58.93-4.39Q59.27-5.08 59.59-5.76 59.91-6.45 60.54-6.84L60.54-6.84 60.54-8.25Q61.03-8.79 61.59-9.23 62.16-9.67 62.45-10.35L62.45-10.35Q62.69-10.25 62.91-10.21 63.13-10.16 63.38-10.16L63.38-10.16Q63.62-10.16 63.89-10.21 64.16-10.25 64.4-10.35L64.4-10.35Q64.79-9.81 65.01-9.16 65.23-8.5 65.57-7.91L65.57-7.91Q65.13-7.03 64.55-5.81 63.96-4.59 63.28-3.37 62.6-2.15 61.84-1.05 61.08 0.05 60.35 0.63L60.35 0.63Q60.2 0.78 59.71 0.98L59.71 0.98Q59.18 1.37 58.74 1.73 58.3 2.1 57.91 2.59L57.91 2.59Q56.49 3.03 55.2 3.76 53.9 4.49 52.63 5.18L52.63 5.18Q52.05 5.03 51.36 5.03L51.36 5.03Q50.78 5.03 50.19 5.1 49.61 5.18 48.92 5.18L48.92 5.18Q48.73 4.93 48.36 4.86 48 4.79 48.09 4.35L48.09 4.35Q46.43 4.25 45.41 3.44 44.38 2.64 43.67 1.46 42.97 0.29 42.53-1.07 42.09-2.44 41.6-3.71L41.6-3.71 41.6-3.86Q41.6-4.1 41.79-4.15 41.99-4.2 41.99-4.44L41.99-4.44Q41.99-4.54 41.94-4.59L41.94-4.59Q41.79-5.13 41.7-5.52 41.6-5.91 41.6-6.45L41.6-6.45Q41.6-7.23 41.7-7.98 41.79-8.74 41.79-9.52L41.79-9.52Q41.79-10.3 41.6-10.89L41.6-10.89Q41.79-11.13 41.92-11.55 42.04-11.96 42.09-12.4 42.14-12.84 42.16-13.28 42.19-13.72 42.28-14.06L42.28-14.06Q42.09-14.6 41.94-15.01 41.79-15.43 41.79-16.02L41.79-16.02 41.79-16.36Q42.28-17.19 42.62-18.07 42.97-18.95 43.36-19.87L43.36-19.87 43.36-20.02Q43.36-21.44 43.26-22.85 43.16-24.27 43.16-25.68L43.16-25.68 43.16-26.61Q43.16-27.1 43.21-27.54L43.21-27.54Q43.6-27.73 43.8-28.08 43.99-28.42 44.38-28.61L44.38-28.61 45.99-28.61 46.29-29.1Q46.43-29.35 46.48-29.64L46.48-29.64Q47.02-29.79 47.53-30.05 48.04-30.32 48.48-30.62L48.48-30.62Q49.17-31.01 49.73-31.32 50.29-31.64 50.85-31.86 51.41-32.08 52.05-32.23 52.68-32.37 53.51-32.47L53.51-32.47Q53.9-32.47 54.03-32.62 54.15-32.76 54.39-32.96L54.39-32.96Q54.98-32.86 55.56-32.79 56.15-32.71 56.74-32.71L56.74-32.71Q57.91-32.71 58.93-33.15L58.93-33.15Q60.4-33.15 61.84-33.2 63.28-33.25 64.74-33.25L64.74-33.25Q66.01-33.25 67.28-33.15 68.55-33.06 69.77-32.81L69.77-32.81Q70.21-32.96 70.75-32.96L70.75-32.96Q71.34-32.96 71.95-32.84 72.56-32.71 73.14-32.81L73.14-32.81Q73.19-32.28 73.41-31.91 73.63-31.54 73.63-31.05ZM103.41-32.08L103.41-32.08Q103.32-31.49 103.14-31.08 102.97-30.66 103.07-29.98L103.07-29.98Q102.58-29.93 102.31-29.66 102.05-29.39 101.87-29.05 101.7-28.71 101.53-28.34 101.36-27.98 101.12-27.69L101.12-27.69Q101.51-25.93 101.56-24.12 101.61-22.31 101.8-20.56L101.8-20.56Q102.05-18.31 102.56-16.14 103.07-13.96 103.07-11.72L103.07-11.72Q103.07-11.04 103.05-10.45 103.02-9.86 103.02-9.23L103.02-9.23Q103.02-8.84 103.05-8.42 103.07-8.01 103.07-7.62L103.07-7.62Q103.07-6.2 102.7-4.79 102.34-3.37 102.14-1.95L102.14-1.95Q101.56-1.42 101.14-0.78 100.73-0.15 100.29 0.39 99.85 0.93 99.26 1.34 98.68 1.76 97.8 1.9L97.8 1.9Q97.65 2.39 97.24 2.64 96.82 2.88 96.53 3.32L96.53 3.32 96.43 3.32Q95.21 3.32 94.33 2.98 93.45 2.64 92.7 2.2 91.94 1.76 91.16 1.27 90.38 0.78 89.35 0.49L89.35 0.49Q87.98-0.63 86.86-1.98 85.74-3.32 84.32-4.39L84.32-4.39Q83.98-5.37 83.42-6.01 82.86-6.64 82.32-7.47L82.32-7.47Q82.08-7.81 81.95-8.11 81.83-8.4 81.64-8.79L81.64-8.79Q81.49-9.18 81.17-9.33 80.85-9.47 80.61-9.67L80.61-9.67Q80.22-11.18 79.49-12.45 78.75-13.72 77.78-14.89L77.78-14.89Q77.49-14.36 77.31-13.75 77.14-13.13 77-12.52 76.85-11.91 76.63-11.3 76.41-10.69 76.07-10.21L76.07-10.21 76.07-10.06Q76.07-9.81 76.26-9.77 76.46-9.72 76.46-9.47L76.46-9.47Q76.46-9.42 76.44-9.38 76.41-9.33 76.41-9.28L76.41-9.28Q76.17-9.08 76.04-8.79 75.92-8.5 75.53-8.45L75.53-8.45Q75.58-8.2 75.58-7.96L75.58-7.96 75.58-7.52Q75.58-6.1 75.26-4.69 74.95-3.27 74.95-1.81L74.95-1.81 74.95-1.17Q74.95-0.83 75-0.54L75-0.54Q75.09-0.24 75.29 0.05 75.48 0.34 75.48 0.59L75.48 0.59Q75.48 0.93 75.19 1.22L75.19 1.22Q75.53 1.46 75.97 1.76 76.41 2.05 76.78 2.42 77.14 2.78 77.39 3.2 77.63 3.61 77.63 4.1L77.63 4.1Q77.63 4.93 77.09 5.27 76.56 5.62 75.8 5.81 75.04 6.01 74.24 6.18 73.43 6.35 72.9 6.79L72.9 6.79 72.75 6.79Q72.16 6.79 71.87 6.45 71.58 6.1 70.99 6.1L70.99 6.1Q70.06 4.59 69.72 2.71 69.38 0.83 69.38-0.88L69.38-0.88Q69.38-2.98 69.75-5.08 70.11-7.18 70.62-9.23 71.14-11.28 71.75-13.31 72.36-15.33 72.9-17.38L72.9-17.38 72.94-17.53Q72.94-17.77 72.82-17.87 72.7-17.97 72.7-18.16L72.7-18.16Q72.7-18.26 72.75-18.26L72.75-18.26Q72.9-18.75 73.07-19.19 73.24-19.63 73.33-20.17L73.33-20.17Q73.63-21.53 73.75-22.97 73.87-24.41 73.9-25.83 73.92-27.25 73.99-28.69 74.07-30.13 74.31-31.54L74.31-31.54Q74.7-31.93 75.04-32.37 75.39-32.81 75.92-33.15L75.92-33.15Q76.9-33.11 77.88-32.86 78.85-32.62 79.73-32.08L79.73-32.08Q80.32-29.98 80.54-27.88 80.76-25.78 81.29-23.68L81.29-23.68 81.29-23.54Q81.29-23.29 81.56-23.32 81.83-23.34 81.98-23.14L81.98-23.14Q81.88-23 81.86-22.8 81.83-22.61 81.83-22.41L81.83-22.41 81.83-21.58Q81.93-21.19 82.08-20.75 82.22-20.31 82.71-20.21L82.71-20.21Q82.95-18.65 83.44-17.33 83.93-16.02 84.57-14.79 85.2-13.57 85.93-12.38 86.66-11.18 87.45-9.86L87.45-9.86Q88.67-8.94 89.55-7.74 90.42-6.54 91.33-5.44 92.23-4.35 93.38-3.52 94.53-2.69 96.38-2.49L96.38-2.49Q96.63-2.69 96.72-3.03L96.72-3.03 96.97-3.71Q97.11-4.05 97.29-4.32 97.46-4.59 97.8-4.74L97.8-4.74Q97.9-6.1 98.02-7.52 98.14-8.94 98.63-10.21L98.63-10.21Q98.38-10.64 98.38-11.28L98.38-11.28Q98.38-11.77 98.46-12.21 98.53-12.65 98.53-13.09L98.53-13.09Q98.53-14.01 98.14-14.6L98.14-14.6Q98.14-14.94 98.19-15.31 98.24-15.67 98.48-16.02L98.48-16.02Q98.09-16.99 97.87-18.07 97.65-19.14 97.65-20.26L97.65-20.26Q97.65-20.9 97.8-21.58L97.8-21.58Q97.5-22.31 97.41-23.29L97.41-23.29 97.21-25.29Q97.11-26.32 96.92-27.2 96.72-28.08 96.19-28.61L96.19-28.61Q96.48-29.05 96.48-29.64L96.48-29.64Q96.48-30.62 96.19-31.49 95.89-32.37 95.89-33.35L95.89-33.35Q95.89-34.03 96.19-34.72L96.19-34.72Q97.26-34.67 98.31-34.5 99.36-34.33 100.39-34.33L100.39-34.33Q100.68-33.94 101.07-33.69 101.46-33.45 101.9-33.23 102.34-33.01 102.75-32.76 103.17-32.52 103.41-32.08ZM141.11-24.07L141.11-24.07Q141.11-23.58 140.76-23.44 140.42-23.29 140.42-22.85L140.42-22.85Q140.42-22.71 140.52-22.61 140.62-22.51 140.62-22.31L140.62-22.31 140.62-22.12Q140.03-19.29 138.93-17.19 137.83-15.09 136.37-13.33 134.9-11.57 133.07-10.01 131.24-8.45 129.14-6.74L129.14-6.74Q128.56-6.25 127.95-5.76 127.34-5.27 126.8-4.74L126.8-4.74 125.72-3.71Q125.68-3.66 125.19-3.49 124.7-3.32 124.6-3.27L124.6-3.27Q123.92-2.98 123.16-2.59 122.4-2.2 121.87-1.61L121.87-1.61Q120.89-1.61 120.21-1.32 119.52-1.03 118.69-0.54L118.69-0.54Q118.45-0.54 118.28-0.63 118.11-0.73 117.91-0.83 117.72-0.93 117.5-0.95 117.28-0.98 116.94-0.88L116.94-0.88Q116.35-1.86 115.67-2.54 114.98-3.22 113.81-3.37L113.81-3.37Q113.66-4.2 113.13-4.66 112.59-5.13 112.05-5.66L112.05-5.66Q111.96-5.96 111.91-6.35 111.86-6.74 111.71-7.08 111.56-7.42 111.32-7.67 111.08-7.91 110.64-7.91L110.64-7.91Q110.59-8.2 110.88-8.2 111.17-8.2 111.17-8.45L111.17-8.45Q111.17-8.74 111.08-9.03 110.98-9.33 110.98-9.67L110.98-9.67Q110.98-9.91 111.03-10.11 111.08-10.3 111.17-10.55L111.17-10.55Q111.03-11.87 111.03-13.23L111.03-13.23Q111.03-15.87 111.39-18.43 111.76-21 111.76-23.63L111.76-23.63Q111.76-24.8 111.64-25.98 111.52-27.15 111.17-28.27L111.17-28.27Q110.05-28.03 108.93-27.71 107.81-27.39 106.83-26.86L106.83-26.86Q106.29-27.2 105.68-27.27 105.07-27.34 104.48-27.54L104.48-27.54Q104.14-28.22 104.14-28.96L104.14-28.96Q104.14-29.64 104.39-30.27L104.39-30.27 104.88-31.54Q106.05-31.79 107.19-32.28 108.34-32.76 109.51-33.15L109.51-33.15Q109.9-33.25 110.51-33.4 111.13-33.54 111.37-33.64L111.37-33.64Q111.71-33.79 111.83-34.2 111.96-34.62 112.2-34.91L112.2-34.91 113.03-34.91Q113.32-34.91 113.66-34.89 114.01-34.86 114.3-34.72L114.3-34.72Q116.06-35.16 117.81-35.28 119.57-35.4 121.43-35.64L121.43-35.64Q121.62-35.64 122.01-35.69L122.01-35.69 122.84-35.84Q123.28-35.94 123.65-36.01 124.02-36.08 124.16-36.08L124.16-36.08Q124.31-36.08 124.31-35.94L124.31-35.94 125.14-35.94Q127.24-35.94 129.24-35.4L129.24-35.4 133.24-34.33Q134.07-33.64 134.9-33.01 135.73-32.37 136.76-31.88L136.76-31.88Q137-31.1 137.52-30.64 138.03-30.18 138.66-29.64L138.66-29.64Q138.91-29 139.32-28.3 139.74-27.59 140.13-26.86 140.52-26.12 140.81-25.42 141.11-24.71 141.11-24.07ZM136.56-23.34L136.56-23.34Q136.03-24.46 135.54-25.68 135.05-26.9 134.32-27.88L134.32-27.88Q133.44-28.13 132.54-28.49 131.63-28.86 131.29-29.79L131.29-29.79Q131.19-29.74 130.95-29.74L130.95-29.74Q130.51-29.74 130.17-30.08 129.83-30.42 129.39-30.52L129.39-30.52Q129-30.57 128.34-30.66 127.68-30.76 126.95-30.81 126.21-30.86 125.51-30.91 124.8-30.96 124.41-30.96L124.41-30.96Q124.02-30.96 123.6-30.93 123.19-30.91 122.75-30.86L122.75-30.86Q122.36-30.86 122.26-30.74 122.16-30.62 121.87-30.52L121.87-30.52Q121.62-30.62 121.33-30.62L121.33-30.62 120.74-30.62Q119.72-30.62 118.72-30.3 117.72-29.98 116.74-29.44L116.74-29.44 116.74-29.25Q116.74-28.86 117.08-28.81 117.42-28.76 117.47-28.42L117.47-28.42Q117.23-28.42 117.08-28.39 116.94-28.37 116.94-28.03L116.94-28.03Q116.94-27.54 117.06-26.95 117.18-26.37 117.18-25.78L117.18-25.78Q117.18-25.34 117.08-24.76 116.98-24.17 116.59-23.83L116.59-23.83Q117.08-23.39 117.08-22.66L117.08-22.66Q117.08-22.17 116.89-21.63 116.69-21.09 116.4-20.7L116.4-20.7Q116.3-18.65 116.01-16.55 115.72-14.45 115.72-12.4L115.72-12.4Q115.72-11.38 115.84-10.4 115.96-9.42 116.25-8.45L116.25-8.45Q116.79-7.91 117.4-7.62 118.01-7.32 118.69-7.03L118.69-7.03 118.69-6.88Q118.69-6.74 118.5-6.59 118.3-6.45 118.3-6.2L118.3-6.2Q118.3-6.01 118.5-6.01L118.5-6.01Q120.55-6.59 122.36-7.42 124.16-8.25 125.72-9.67L125.72-9.67Q125.87-9.81 126.02-9.81L126.02-9.81Q126.12-9.81 126.29-9.77 126.46-9.72 126.6-9.67L126.6-9.67 126.56-9.86Q126.56-10.16 126.73-10.4 126.9-10.64 127.14-10.84L127.14-10.84 127.63-11.28Q127.87-11.52 128.02-11.77L128.02-11.77Q128.41-11.87 128.58-12.16 128.75-12.45 129.19-12.45L129.19-12.45Q129.29-12.99 129.73-13.26 130.17-13.53 130.27-14.06L130.27-14.06Q131.24-14.6 132-15.38 132.76-16.16 133.42-17.04 134.07-17.92 134.66-18.87 135.25-19.82 135.88-20.7L135.88-20.7 135.88-20.9Q135.88-21.68 136.15-22.17 136.42-22.66 136.56-23.34ZM174.16-31.05L174.16-31.05 174.16-30.86Q173.82-30.76 173.82-30.37L173.82-30.37Q173.28-30.13 172.7-30 172.11-29.88 171.57-29.64L171.57-29.64Q171.03-29.69 170.47-29.71 169.91-29.74 169.37-29.74L169.37-29.74Q167.91-29.74 166.45-29.64 164.98-29.54 163.52-29.64L163.52-29.64Q162.83-29.25 162.03-29.03 161.22-28.81 160.49-28.81L160.49-28.81Q159.9-28.81 159.46-28.96L159.46-28.96Q158.29-28.37 156.9-27.98 155.51-27.59 154.09-27.22 152.68-26.86 151.38-26.39 150.09-25.93 149.11-25.1L149.11-25.1Q149.01-24.41 148.96-23.75 148.92-23.1 148.92-22.46L148.92-22.46Q148.92-21.78 148.99-21.19 149.06-20.61 149.31-20.02L149.31-20.02Q149.55-19.92 149.87-19.87 150.19-19.82 150.43-19.82L150.43-19.82Q150.67-19.82 150.92-19.9 151.16-19.97 151.26-20.21L151.26-20.21Q151.99-20.31 152.72-20.29 153.46-20.26 154.19-20.26L154.19-20.26Q154.92-20.26 155.63-20.31 156.34-20.36 157.02-20.56L157.02-20.56Q157.8-20.75 158.56-20.8 159.32-20.85 160.05-20.9 160.78-20.95 161.56-21.07 162.34-21.19 163.17-21.58L163.17-21.58Q163.81-21.34 164.47-21.34 165.13-21.34 165.76-21.24L165.76-21.24Q166.1-21 166.32-20.7 166.54-20.41 166.54-20.02L166.54-20.02Q166.54-19.34 166.05-18.65 165.57-17.97 165.27-17.38L165.27-17.38 164.74-17.38Q163.56-17.38 162.47-17.07 161.37-16.75 160.27-16.33 159.17-15.92 158.07-15.6 156.97-15.28 155.8-15.28L155.8-15.28Q155.61-15.28 155.58-15.06 155.56-14.84 155.46-14.75L155.46-14.75Q155.21-14.79 154.73-14.79L154.73-14.79Q153.6-14.79 152.58-14.55 151.55-14.31 150.48-14.31L150.48-14.31Q150.19-14.31 149.89-14.33 149.6-14.36 149.31-14.4L149.31-14.4Q149.06-14.01 148.67-13.89 148.28-13.77 147.94-13.48L147.94-13.48Q147.79-13.04 147.77-12.4 147.74-11.77 147.72-11.11 147.7-10.45 147.6-9.86 147.5-9.28 147.21-8.94L147.21-8.94Q147.26-8.69 147.6-8.76 147.94-8.84 147.94-8.45L147.94-8.45Q147.94-8.01 147.84-7.52 147.74-7.03 147.74-6.54L147.74-6.54Q147.74-5.62 147.96-4.52 148.18-3.42 148.65-2.49 149.11-1.56 149.89-0.95 150.67-0.34 151.85-0.34L151.85-0.34Q152.63-0.34 153.31-0.63 153.99-0.93 154.43-1.61L154.43-1.61 154.68-1.66Q154.87-1.66 155.04-1.61 155.21-1.56 155.41-1.56L155.41-1.56Q155.7-1.56 156.17-1.93 156.63-2.29 157.19-2.78 157.75-3.27 158.34-3.74 158.93-4.2 159.46-4.39L159.46-4.39Q159.8-5.08 160.12-5.76 160.44-6.45 161.07-6.84L161.07-6.84 161.07-8.25Q161.56-8.79 162.12-9.23 162.69-9.67 162.98-10.35L162.98-10.35Q163.22-10.25 163.44-10.21 163.66-10.16 163.91-10.16L163.91-10.16Q164.15-10.16 164.42-10.21 164.69-10.25 164.93-10.35L164.93-10.35Q165.32-9.81 165.54-9.16 165.76-8.5 166.1-7.91L166.1-7.91Q165.66-7.03 165.08-5.81 164.49-4.59 163.81-3.37 163.12-2.15 162.37-1.05 161.61 0.05 160.88 0.63L160.88 0.63Q160.73 0.78 160.24 0.98L160.24 0.98Q159.71 1.37 159.27 1.73 158.83 2.1 158.44 2.59L158.44 2.59Q157.02 3.03 155.73 3.76 154.43 4.49 153.16 5.18L153.16 5.18Q152.58 5.03 151.89 5.03L151.89 5.03Q151.31 5.03 150.72 5.1 150.14 5.18 149.45 5.18L149.45 5.18Q149.26 4.93 148.89 4.86 148.53 4.79 148.62 4.35L148.62 4.35Q146.96 4.25 145.94 3.44 144.91 2.64 144.2 1.46 143.5 0.29 143.06-1.07 142.62-2.44 142.13-3.71L142.13-3.71 142.13-3.86Q142.13-4.1 142.32-4.15 142.52-4.2 142.52-4.44L142.52-4.44Q142.52-4.54 142.47-4.59L142.47-4.59Q142.32-5.13 142.23-5.52 142.13-5.91 142.13-6.45L142.13-6.45Q142.13-7.23 142.23-7.98 142.32-8.74 142.32-9.52L142.32-9.52Q142.32-10.3 142.13-10.89L142.13-10.89Q142.32-11.13 142.45-11.55 142.57-11.96 142.62-12.4 142.67-12.84 142.69-13.28 142.71-13.72 142.81-14.06L142.81-14.06Q142.62-14.6 142.47-15.01 142.32-15.43 142.32-16.02L142.32-16.02 142.32-16.36Q142.81-17.19 143.15-18.07 143.5-18.95 143.89-19.87L143.89-19.87 143.89-20.02Q143.89-21.44 143.79-22.85 143.69-24.27 143.69-25.68L143.69-25.68 143.69-26.61Q143.69-27.1 143.74-27.54L143.74-27.54Q144.13-27.73 144.33-28.08 144.52-28.42 144.91-28.61L144.91-28.61 146.52-28.61 146.82-29.1Q146.96-29.35 147.01-29.64L147.01-29.64Q147.55-29.79 148.06-30.05 148.57-30.32 149.01-30.62L149.01-30.62Q149.7-31.01 150.26-31.32 150.82-31.64 151.38-31.86 151.94-32.08 152.58-32.23 153.21-32.37 154.04-32.47L154.04-32.47Q154.43-32.47 154.56-32.62 154.68-32.76 154.92-32.96L154.92-32.96Q155.51-32.86 156.09-32.79 156.68-32.71 157.27-32.71L157.27-32.71Q158.44-32.71 159.46-33.15L159.46-33.15Q160.93-33.15 162.37-33.2 163.81-33.25 165.27-33.25L165.27-33.25Q166.54-33.25 167.81-33.15 169.08-33.06 170.3-32.81L170.3-32.81Q170.74-32.96 171.28-32.96L171.28-32.96Q171.87-32.96 172.48-32.84 173.09-32.71 173.67-32.81L173.67-32.81Q173.72-32.28 173.94-31.91 174.16-31.54 174.16-31.05ZM234.26-8.5L234.26-8.5Q234.17-7.76 233.75-7.37 233.34-6.98 232.8-6.64L232.8-6.64Q232.56-6.69 232.34-6.71 232.12-6.74 231.87-6.74L231.87-6.74Q230.36-6.79 229.02-6.35 227.67-5.91 226.26-5.71L226.26-5.71Q225.77-5.62 225.35-5.64 224.94-5.66 224.5-5.57L224.5-5.57Q222.94-5.32 221.18-5.18 219.42-5.03 217.66-4.81 215.91-4.59 214.22-4.27 212.54-3.96 211.07-3.37L211.07-3.37Q210.93-3.47 210.78-3.59 210.63-3.71 210.44-3.71L210.44-3.71Q209.95-3.71 209.51-3.56 209.07-3.42 208.63-3.47L208.63-3.47Q208.14-3.17 207.58-3.05 207.02-2.93 206.46-2.86 205.9-2.78 205.36-2.64 204.82-2.49 204.33-2.1L204.33-2.1Q203.94-2.29 203.38-2.32 202.82-2.34 202.62-2.69L202.62-2.69Q201.5-2.15 200.26-2 199.01-1.86 197.74-1.9L197.74-1.9Q196.91-1.95 195.84-2.15 194.76-2.34 193.69-2.71 192.61-3.08 191.69-3.59 190.76-4.1 190.27-4.83L190.27-4.83Q189.93-5.32 189.78-5.91 189.64-6.49 189.1-6.79L189.1-6.79Q189.25-7.91 189.44-8.98 189.64-10.06 189.83-11.18L189.83-11.18Q190.81-12.01 191.69-12.94 192.57-13.87 193.35-14.89L193.35-14.89Q194.27-15.33 195.08-15.97 195.89-16.6 196.69-17.26 197.5-17.92 198.3-18.55 199.11-19.19 200.04-19.68L200.04-19.68Q200.18-20.02 200.45-20.24 200.72-20.46 201.01-20.68 201.31-20.9 201.55-21.17 201.79-21.44 201.89-21.83L201.89-21.83Q203.6-22.85 204.87-24.41 206.14-25.98 206.53-27.93L206.53-27.93Q205.7-28.61 204.65-28.83 203.6-29.05 202.48-29.15L202.48-29.15Q201.5-29.2 200.45-29.15 199.4-29.1 198.33-29.2L198.33-29.2Q197.25-28.86 196.11-28.76 194.96-28.66 193.84-28.59 192.71-28.52 191.61-28.3 190.51-28.08 189.49-27.49L189.49-27.49Q189.29-27.49 189.12-27.54 188.95-27.59 188.76-27.59L188.76-27.59Q187.19-27.64 185.83-26.98 184.46-26.32 183.14-25.68L183.14-25.68Q183.04-25.49 183.04-25.39L183.04-25.39Q183.04-25.1 183.17-24.83 183.29-24.56 183.29-24.27L183.29-24.27Q183.24-24.22 183.24-24.17 183.24-24.12 183.19-24.07L183.19-24.07Q183.14-23.83 183.07-23.63 183-23.44 182.9-23.19L182.9-23.19Q182.36-21.63 182.31-20.12L182.31-20.12Q182.26-18.85 182.31-17.63 182.36-16.41 182.31-15.14L182.31-15.14Q182.21-13.57 181.82-12.21L181.82-12.21Q182.07-11.04 182.26-9.74 182.46-8.45 182.75-7.18 183.04-5.91 183.46-4.71 183.87-3.52 184.56-2.44L184.56-2.44Q184.51-2.34 184.61-2.29 184.7-2.25 184.8-2.25L184.8-2.25 185.19-2.25Q185.44-2.25 185.39-2.05L185.39-2.05Q185.49-1.9 185.53-1.78 185.58-1.66 185.73-1.56L185.73-1.56Q185.83-1.42 185.73-1.17L185.73-1.17Q185.68-0.2 185.24 0.63 184.8 1.46 184.7 2.44L184.7 2.44Q184.12 2.59 183.63 2.59L183.63 2.59Q182.8 2.54 182.17 2.12 181.53 1.71 180.99 1.12 180.46 0.54 179.97-0.07 179.48-0.68 178.89-1.12L178.89-1.12Q178.55-2.49 178.23-4.15 177.92-5.81 177.18-6.98L177.18-6.98Q177.38-7.42 177.38-8.06L177.38-8.06Q177.43-9.03 177.21-9.99 176.99-10.94 177.09-11.91L177.09-11.91Q177.09-12.45 177.21-12.99 177.33-13.53 177.38-14.06L177.38-14.06Q177.43-14.89 177.21-15.67 176.99-16.46 177.04-17.29L177.04-17.29Q177.09-17.68 177.21-18.04 177.33-18.41 177.58-18.7L177.58-18.7Q177.33-19.29 177.43-19.82L177.43-19.82Q177.48-20.65 177.62-21.39 177.77-22.12 177.82-22.85L177.82-22.85Q177.82-23.24 177.77-23.61 177.72-23.97 177.62-24.32L177.62-24.32 177.18-24.46Q176.89-24.46 176.62-24.32 176.35-24.17 176.16-23.97 175.96-23.78 175.82-23.66 175.67-23.54 175.52-23.54L175.52-23.54Q175.43-23.54 175.3-23.56 175.18-23.58 175.09-23.58L175.09-23.58Q174.99-23.58 174.72-23.39 174.45-23.19 174.08-22.97 173.72-22.75 173.38-22.53 173.03-22.31 172.84-22.27L172.84-22.27Q172.3-22.36 171.98-22.63 171.67-22.9 171.4-23.17 171.13-23.44 170.84-23.66 170.54-23.88 170.1-23.83L170.1-23.83Q169.96-24.12 169.93-24.46 169.91-24.8 169.96-25.15L169.96-25.15 169.96-25.93Q170.3-26.56 170.86-26.98 171.42-27.39 172.06-27.69L172.06-27.69 173.33-28.27Q173.96-28.56 174.5-29L174.5-29 174.94-29Q175.82-28.96 176.48-29.35 177.14-29.74 177.72-30.25 178.31-30.76 178.92-31.3 179.53-31.84 180.26-32.13L180.26-32.13Q180.8-31.88 181.38-31.71 181.97-31.54 182.6-31.49L182.6-31.49Q183.24-31.49 183.92-31.69 184.61-31.88 185-32.42L185-32.42Q185.24-32.32 185.41-32.3 185.58-32.28 185.83-32.28L185.83-32.28Q186.56-32.23 187.29-32.5 188.02-32.76 188.71-33.15L188.71-33.15Q189.68-33.11 190.64-33.28 191.59-33.45 192.54-33.64 193.49-33.84 194.45-34.01 195.4-34.18 196.37-34.13L196.37-34.13Q197.99-34.08 199.55-34.42 201.11-34.77 202.72-34.67L202.72-34.67Q203.84-34.62 204.94-34.5 206.04-34.38 207.17-34.42L207.17-34.42Q207.8-34.13 208.31-33.91 208.83-33.69 209.61-33.79L209.61-33.79Q211.17-32.47 212.44-30.71L212.44-30.71 212.44-29.88Q212.39-28.76 212.05-27.69 211.71-26.61 211.24-25.56 210.78-24.51 210.24-23.51 209.7-22.51 209.22-21.53L209.22-21.53Q206.04-18.65 202.87-15.82 199.69-12.99 196.33-10.35L196.33-10.35Q196.23-9.86 196.06-9.47 195.89-9.08 195.84-8.64L195.84-8.64Q195.84-8.4 195.89-8.25L195.89-8.25Q196.23-8.15 196.5-7.89 196.76-7.62 196.67-7.18L196.67-7.18 197.11-7.18Q197.35-7.18 197.35-6.98L197.35-6.98 198.13-6.93Q199.99-6.84 201.84-7.03 203.7-7.23 205.58-7.47 207.46-7.71 209.31-7.93 211.17-8.15 213.02-8.2L213.02-8.2Q213.46-8.35 213.95-8.45 214.44-8.54 214.83-8.84L214.83-8.84 214.98-8.84Q215.32-8.84 215.49-8.64 215.66-8.45 216-8.4L216-8.4Q216.25-8.4 216.52-8.5 216.78-8.59 217.08-8.64L217.08-8.64Q217.76-8.84 218.52-8.89 219.27-8.94 220.01-9.03L220.01-9.03Q222.84-9.28 225.62-9.35 228.41-9.42 231.19-10.06L231.19-10.06Q231.43-9.72 231.87-9.59 232.31-9.47 232.8-9.35 233.29-9.23 233.7-9.08 234.12-8.94 234.26-8.5ZM244.71-6.15L244.71-6.15Q244.71-5.32 244.3-4.71 243.88-4.1 243.98-3.22L243.98-3.22Q243.3-2.83 242.86-2.2 242.42-1.56 242.03-0.88L242.03-0.88Q238.8 1.22 235.12 2.51 231.43 3.81 227.52 3.81L227.52 3.81Q227.28 3.81 227.08 3.59 226.89 3.37 226.69 3.13 226.5 2.88 226.28 2.66 226.06 2.44 225.77 2.44L225.77 2.44Q225.42 2.44 225.23 2.59L225.23 2.59Q225.23 2.49 225.25 2.42 225.28 2.34 225.28 2.25L225.28 2.25Q225.28 1.66 225.13 1.05 224.99 0.44 224.99-0.15L224.99-0.15Q224.99-0.83 225.23-1.27L225.23-1.27 225.82-1.27Q226.3-1.27 226.77-1.34 227.23-1.42 227.77-1.42L227.77-1.42Q228.31-1.42 228.74-1.12L228.74-1.12Q231.43-1.22 233.85-2.12 236.26-3.03 238.75-3.91L238.75-3.91Q239.15-4.44 239.22-5.1 239.29-5.76 239.58-6.35L239.58-6.35Q238.32-7.42 237.02-8.03 235.73-8.64 234.02-8.45L234.02-8.45Q232.99-9.08 231.85-9.18 230.7-9.28 229.53-9.47L229.53-9.47Q229.23-9.52 228.92-9.59 228.6-9.67 228.26-9.67L228.26-9.67Q228.01-9.67 227.79-9.55 227.57-9.42 227.67-9.18L227.67-9.18Q227.43-9.57 227.01-9.64 226.6-9.72 226.3-10.01L226.3-10.01Q224.74-10.11 223.57-10.57 222.4-11.04 220.98-11.62L220.98-11.62Q220.59-11.77 220.22-11.84 219.86-11.91 219.52-12.11L219.52-12.11Q218.64-12.55 218.1-13.28 217.56-14.01 217.25-14.92 216.93-15.82 216.78-16.8 216.64-17.77 216.49-18.6L216.49-18.6Q216.93-19.38 217.29-20.21 217.66-21.04 217.9-21.97L217.9-21.97Q218.2-22.12 218.49-22.22 218.78-22.31 219.13-22.46L219.13-22.46Q219.08-22.56 219.08-22.71L219.08-22.71Q219.08-22.95 219.25-23.19 219.42-23.44 219.32-23.68L219.32-23.68Q220.4-24.66 221.4-25.71 222.4-26.76 223.13-28.03L223.13-28.03Q223.86-28.27 224.3-28.76 224.74-29.25 225.18-29.76 225.62-30.27 226.16-30.69 226.69-31.1 227.52-31.2L227.52-31.2Q227.72-31.54 228.06-31.76 228.4-31.98 228.74-32.18 229.09-32.37 229.38-32.62 229.67-32.86 229.82-33.3L229.82-33.3Q230.6-33.3 231.26-33.59 231.92-33.89 232.55-34.23 233.19-34.57 233.85-34.86 234.51-35.16 235.29-35.16L235.29-35.16Q235.48-35.16 235.68-35.13 235.87-35.11 236.12-35.06L236.12-35.06Q236.46-34.72 236.58-34.25 236.7-33.79 236.75-33.25 236.8-32.71 236.83-32.18 236.85-31.64 237-31.2L237-31.2Q236.56-30.37 236.04-29.54 235.53-28.71 234.7-28.27L234.7-28.27 234.6-28.27Q234.26-28.22 233.97-28.42 233.68-28.61 233.29-28.61L233.29-28.61Q233.04-28.61 232.9-28.47L232.9-28.47 232.65-28.22Q232.55-28.13 232.38-28.03 232.21-27.93 231.92-28.03L231.92-28.03Q231.24-27.78 231.38-27.2L231.38-27.2Q230.45-27.1 229.82-26.64 229.18-26.17 228.65-25.61 228.11-25.05 227.57-24.58 227.04-24.12 226.3-24.07L226.3-24.07Q225.47-22.61 224.28-21.48 223.08-20.36 222.3-18.95L222.3-18.95Q222.45-18.55 222.49-18.12 222.54-17.68 222.64-17.19L222.64-17.19Q223.08-16.6 223.69-16.16 224.3-15.72 224.89-15.28L224.89-15.28 225.03-15.28Q226.01-15.28 226.84-14.92 227.67-14.55 228.6-14.55L228.6-14.55Q229.09-14.55 229.43-14.75L229.43-14.75Q230.7-14.45 231.94-14.26 233.19-14.06 234.46-13.96L234.46-13.96Q235.09-13.87 235.75-13.87 236.41-13.87 237-13.72L237-13.72Q237.53-13.57 238.07-13.35 238.61-13.13 239.15-12.89L239.15-12.89Q240.27-12.4 241.27-11.82 242.27-11.23 243.05-10.42 243.83-9.62 244.27-8.57 244.71-7.52 244.71-6.15Z"
                                                                                          opacity="1"
                                                                                          transform="matrix(1,0,0,1,0,0)"
                                                                                          fill=""
                                                                                          class="undefined-text-0"
                                                                                          data-fill-palette-color="primary"
                                                                                          id="text-0"></path>
                                                                                </svg>
                                                                            </g>
                                                                        </svg>
                                                                    </g>
                                                                </svg>
                                                            </g>
                                                        </svg>
                                                    </g>
                                                </svg>
                                            </g>
                                        </svg>
                                    </g>
                                </svg>
                            </g>
                            <g>
                                <path d="M244.431 166.881A122.216 122.216 0 1 1 244.431 80.319L239.129 80.319A116.913 116.913 0 1 0 239.129 166.881L244.431 166.881"
                                      fill="" stroke="transparent" data-fill-palette-color="tertiary"></path>
                            </g>
                        </svg>
                    </g>
                </svg>
                <rect width="395.52" height="247.2" fill="none" stroke="none" visibility="hidden"></rect>
            </g>
        </svg>
    </g>
</svg>