<svg xmlns="http://www.w3.org/2000/svg" version="1.1" xmlns:xlink="http://www.w3.org/1999/xlink" xmlns:svgjs="http://svgjs.dev/svgjs" width="1000" height="623" viewBox="0 0 1000 623"><g transform="matrix(1,0,0,1,-0.6060994007045792,0.2522267206477409)"><svg viewBox="0 0 396 247" data-background-color="#ffffff" preserveAspectRatio="xMidYMid meet" height="623" width="1000" xmlns="http://www.w3.org/2000/svg" xmlns:xlink="http://www.w3.org/1999/xlink"><defs></defs><g id="tight-bounds" transform="matrix(1,0,0,1,0.24001536267900292,-0.09999999999999432)"><svg viewBox="0 0 395.52 247.2" height="247.2" width="395.52"><g><svg></svg></g><g><svg viewBox="0 0 395.52 247.2" height="247.2" width="395.52"><g><path d="M55.039 247.2l41.06-71.119 5.112 0-38.365 66.45h269.828l-38.365-66.45 5.112 0 41.06 71.119zM197.76 0l41.06 71.119-5.111 0-35.949-62.266-35.949 62.266-5.111 0z" fill="#0063db" data-fill-palette-color="tertiary"></path></g><g transform="matrix(1,0,0,1,0,86.11331377998641)"><svg viewBox="0 0 395.52 74.97337244002715" height="74.97337244002715" width="395.52"><g><svg viewBox="0 0 395.52 74.97337244002715" height="74.97337244002715" width="395.52"><g><svg viewBox="0 0 395.52 74.97337244002715" height="74.97337244002715" width="395.52"><g><svg viewBox="0 0 395.52 74.97337244002715" height="74.97337244002715" width="395.52"><g><svg viewBox="0 0 395.52 74.97337244002715" height="74.97337244002715" width="395.52"><g><svg viewBox="0 0 395.52 74.97337244002715" height="74.97337244002715" width="395.52"><g transform="matrix(1,0,0,1,0,0)"><svg width="395.52" viewBox="2.9322746973 -39.5 211.0077253027 40" height="74.97337244002715" data-palette-color="#3361ff"><path d="M17.25 0.5L17.25 0.5Q14.05 0.5 11.23-0.48 8.4-1.45 6.3-3.23 4.2-5 3.15-7.3L3.15-7.3Q2.7-8.25 3.18-9.08 3.65-9.9 4.8-10.15L4.8-10.15Q5.6-10.35 6.43-9.93 7.25-9.5 7.65-8.65L7.65-8.65Q8.3-7.3 9.7-6.23 11.1-5.15 13.08-4.5 15.05-3.85 17.25-3.85L17.25-3.85Q19.75-3.85 21.78-4.65 23.8-5.45 25.03-6.95 26.25-8.45 26.25-10.65L26.25-10.65Q26.25-13.45 24.13-15.58 22-17.7 17.25-18.25L17.25-18.25Q11.15-18.9 7.68-21.9 4.2-24.9 4.2-29.3L4.2-29.3Q4.2-32.55 5.98-34.83 7.75-37.1 10.83-38.3 13.9-39.5 17.75-39.5L17.75-39.5Q20.7-39.5 22.95-38.65 25.2-37.8 26.9-36.33 28.6-34.85 29.8-32.9L29.8-32.9Q30.4-31.9 30.28-31 30.15-30.1 29.35-29.6L29.35-29.6Q28.45-29.1 27.45-29.43 26.45-29.75 25.95-30.6L25.95-30.6Q25.2-31.95 24.05-32.95 22.9-33.95 21.33-34.55 19.75-35.15 17.6-35.15L17.6-35.15Q13.85-35.2 11.38-33.68 8.9-32.15 8.9-29.15L8.9-29.15Q8.9-27.55 9.73-26.18 10.55-24.8 12.63-23.78 14.7-22.75 18.45-22.35L18.45-22.35Q24.5-21.65 27.73-18.65 30.95-15.65 30.95-10.8L30.95-10.8Q30.95-8 29.85-5.9 28.75-3.8 26.83-2.38 24.9-0.95 22.43-0.23 19.95 0.5 17.25 0.5ZM51.15 0.2L51.15 0.2Q47.05 0.2 43.85-1.58 40.65-3.35 38.85-6.48 37.05-9.6 37.05-13.65L37.05-13.65Q37.05-17.75 38.75-20.88 40.45-24 43.47-25.78 46.5-27.55 50.4-27.55L50.4-27.55Q54.25-27.55 57.07-25.83 59.9-24.1 61.4-21.08 62.9-18.05 62.9-14.1L62.9-14.1Q62.9-13.2 62.3-12.63 61.7-12.05 60.75-12.05L60.75-12.05 40.25-12.05 40.25-15.8 60.8-15.8 58.7-14.35Q58.7-17 57.7-19.07 56.7-21.15 54.85-22.35 53-23.55 50.4-23.55L50.4-23.55Q47.55-23.55 45.47-22.28 43.4-21 42.32-18.75 41.25-16.5 41.25-13.65L41.25-13.65Q41.25-10.8 42.52-8.58 43.8-6.35 46.02-5.08 48.25-3.8 51.15-3.8L51.15-3.8Q52.8-3.8 54.47-4.4 56.15-5 57.2-5.8L57.2-5.8Q57.9-6.3 58.7-6.33 59.5-6.35 60.1-5.85L60.1-5.85Q60.9-5.15 60.95-4.33 61-3.5 60.2-2.9L60.2-2.9Q58.55-1.55 56-0.68 53.45 0.2 51.15 0.2ZM92.6 0.05L92.6 0.05Q91.6 0.05 90.92-0.63 90.25-1.3 90.25-2.3L90.25-2.3 90.25-14.85Q90.25-17.75 89.17-19.63 88.1-21.5 86.22-22.43 84.35-23.35 82-23.35L82-23.35Q79.75-23.35 77.97-22.45 76.2-21.55 75.15-20.05 74.1-18.55 74.1-16.65L74.1-16.65 71.05-16.65Q71.1-19.8 72.65-22.28 74.2-24.75 76.85-26.18 79.5-27.6 82.8-27.6L82.8-27.6Q86.25-27.6 89-26.13 91.75-24.65 93.35-21.8 94.95-18.95 94.95-14.85L94.95-14.85 94.95-2.3Q94.95-1.3 94.27-0.63 93.6 0.05 92.6 0.05ZM71.75 0.05L71.75 0.05Q70.7 0.05 70.05-0.63 69.4-1.3 69.4-2.3L69.4-2.3 69.4-25Q69.4-26.05 70.05-26.7 70.7-27.35 71.75-27.35L71.75-27.35Q72.8-27.35 73.45-26.7 74.1-26.05 74.1-25L74.1-25 74.1-2.3Q74.1-1.3 73.45-0.63 72.8 0.05 71.75 0.05ZM115.79 0.2L115.79 0.2Q111.89 0.2 108.77-1.63 105.64-3.45 103.82-6.6 101.99-9.75 101.99-13.7L101.99-13.7Q101.99-17.65 103.69-20.78 105.39-23.9 108.34-25.73 111.29-27.55 114.99-27.55L114.99-27.55Q118.09-27.55 120.67-26.28 123.24-25 124.89-22.8L124.89-22.8 124.89-36.7Q124.89-37.75 125.57-38.4 126.24-39.05 127.24-39.05L127.24-39.05Q128.29-39.05 128.94-38.4 129.59-37.75 129.59-36.7L129.59-36.7 129.59-13.65Q129.59-9.7 127.77-6.55 125.94-3.4 122.82-1.6 119.69 0.2 115.79 0.2ZM115.79-3.95L115.79-3.95Q118.49-3.95 120.57-5.23 122.64-6.5 123.87-8.72 125.09-10.95 125.09-13.7L125.09-13.7Q125.09-16.5 123.87-18.68 122.64-20.85 120.57-22.13 118.49-23.4 115.79-23.4L115.79-23.4Q113.19-23.4 111.07-22.13 108.94-20.85 107.72-18.68 106.49-16.5 106.49-13.7L106.49-13.7Q106.49-10.95 107.72-8.72 108.94-6.5 111.07-5.23 113.19-3.95 115.79-3.95ZM151.29 0.2L151.29 0.2Q147.19 0.2 143.99-1.58 140.79-3.35 138.99-6.48 137.19-9.6 137.19-13.65L137.19-13.65Q137.19-17.75 138.89-20.88 140.59-24 143.62-25.78 146.64-27.55 150.54-27.55L150.54-27.55Q154.39-27.55 157.22-25.83 160.04-24.1 161.54-21.08 163.04-18.05 163.04-14.1L163.04-14.1Q163.04-13.2 162.44-12.63 161.84-12.05 160.89-12.05L160.89-12.05 140.39-12.05 140.39-15.8 160.94-15.8 158.84-14.35Q158.84-17 157.84-19.07 156.84-21.15 154.99-22.35 153.14-23.55 150.54-23.55L150.54-23.55Q147.69-23.55 145.62-22.28 143.54-21 142.47-18.75 141.39-16.5 141.39-13.65L141.39-13.65Q141.39-10.8 142.67-8.58 143.94-6.35 146.17-5.08 148.39-3.8 151.29-3.8L151.29-3.8Q152.94-3.8 154.62-4.4 156.29-5 157.34-5.8L157.34-5.8Q158.04-6.3 158.84-6.33 159.64-6.35 160.24-5.85L160.24-5.85Q161.04-5.15 161.09-4.33 161.14-3.5 160.34-2.9L160.34-2.9Q158.69-1.55 156.14-0.68 153.59 0.2 151.29 0.2ZM174.14-17L171.69-17Q171.74-20.05 173.21-22.45 174.69-24.85 177.16-26.25 179.64-27.65 182.59-27.65L182.59-27.65Q185.34-27.65 186.74-26.78 188.14-25.9 187.84-24.6L187.84-24.6Q187.64-23.9 187.21-23.55 186.79-23.2 186.19-23.15 185.59-23.1 184.89-23.25L184.89-23.25Q181.79-23.75 179.36-23.1 176.94-22.45 175.54-20.9 174.14-19.35 174.14-17L174.14-17ZM171.84 0L171.84 0Q170.74 0 170.14-0.58 169.54-1.15 169.54-2.3L169.54-2.3 169.54-25.05Q169.54-26.15 170.14-26.75 170.74-27.35 171.84-27.35L171.84-27.35Q172.99-27.35 173.56-26.78 174.14-26.2 174.14-25.05L174.14-25.05 174.14-2.3Q174.14-1.2 173.56-0.6 172.99 0 171.84 0ZM203.19 0.2L203.19 0.2Q199.89 0.2 196.94-0.85 193.99-1.9 192.29-3.65L192.29-3.65Q191.59-4.4 191.71-5.33 191.84-6.25 192.64-6.85L192.64-6.85Q193.54-7.55 194.44-7.45 195.34-7.35 195.94-6.65L195.94-6.65Q196.94-5.55 198.84-4.75 200.74-3.95 203.09-3.95L203.09-3.95Q206.24-3.95 207.81-5 209.39-6.05 209.44-7.65L209.44-7.65Q209.44-9.25 207.89-10.38 206.34-11.5 202.44-12.2L202.44-12.2Q197.39-13.15 195.09-15.15 192.79-17.15 192.79-20L192.79-20Q192.79-22.55 194.24-24.23 195.69-25.9 198.01-26.73 200.34-27.55 202.94-27.55L202.94-27.55Q206.24-27.55 208.76-26.48 211.29-25.4 212.79-23.5L212.79-23.5Q213.39-22.75 213.34-21.95 213.29-21.15 212.49-20.6L212.49-20.6Q211.79-20.1 210.79-20.28 209.79-20.45 209.09-21.1L209.09-21.1Q207.84-22.4 206.34-22.93 204.84-23.45 202.84-23.45L202.84-23.45Q200.44-23.45 198.89-22.58 197.34-21.7 197.34-20.15L197.34-20.15Q197.34-19.2 197.86-18.43 198.39-17.65 199.81-17.05 201.24-16.45 203.99-15.95L203.99-15.95Q207.74-15.25 209.91-14.08 212.09-12.9 213.01-11.38 213.94-9.85 213.94-7.9L213.94-7.9Q213.94-5.55 212.66-3.73 211.39-1.9 209.01-0.85 206.64 0.2 203.19 0.2Z" opacity="1" transform="matrix(1,0,0,1,0,0)" fill="#3361ff" class="undefined-text-0" data-fill-palette-color="primary" id="text-0"></path></svg></g></svg></g></svg></g></svg></g></svg></g></svg></g></svg></g></svg></g></svg><rect width="395.52" height="247.2" fill="none" stroke="none" visibility="hidden"></rect></g></svg></g></svg>