<svg width="161" height="100" viewBox="0 0 161 100" fill="none" xmlns="http://www.w3.org/2000/svg">
<g clip-path="url(#clip0_102_108)">
<g clip-path="url(#clip1_102_108)">
<g clip-path="url(#clip2_102_108)">
<g clip-path="url(#clip3_102_108)">
<path d="M22.3777 100.081L39.0011 71.2878H41.0708L25.5384 98.1906H134.78L119.248 71.2878H121.318L137.941 100.081H22.3777ZM80.1594 0L96.7829 28.7931H94.7136L80.1594 3.58421L65.6052 28.7931H63.5359L80.1594 0Z" fill="#0063DB"/>
<g clip-path="url(#clip4_102_108)">
<g clip-path="url(#clip5_102_108)">
<g clip-path="url(#clip6_102_108)">
<g clip-path="url(#clip7_102_108)">
<g clip-path="url(#clip8_102_108)">
<g clip-path="url(#clip9_102_108)">
<g clip-path="url(#clip10_102_108)">
<path d="M10.9613 65.2173C9.34243 65.2173 7.8197 64.9694 6.39308 64.4737C4.96141 63.983 3.71438 63.2874 2.65201 62.3869C1.58963 61.4914 0.792853 60.4619 0.261667 59.2984C0.034015 58.8178 0.0416033 58.3675 0.284432 57.9477C0.522201 57.5328 0.931974 57.2622 1.51375 57.1357C1.91846 57.0345 2.33077 57.0902 2.75066 57.3026C3.16549 57.5202 3.47408 57.8439 3.67644 58.274C4.00527 58.9569 4.52381 59.569 5.23206 60.1103C5.94031 60.6567 6.79527 61.0943 7.79693 61.4231C8.79354 61.752 9.84833 61.9164 10.9613 61.9164C12.226 61.9164 13.3719 61.714 14.3988 61.3093C15.4207 60.9046 16.2428 60.3228 16.8651 59.564C17.4822 58.8051 17.7908 57.8692 17.7908 56.7563C17.7908 55.3398 17.2546 54.0928 16.1821 53.0152C15.1045 51.9427 13.3643 51.2673 10.9613 50.9891C7.87535 50.6603 5.45465 49.737 3.6992 48.2193C1.9387 46.7017 1.05845 44.8299 1.05845 42.6039C1.05845 40.9598 1.50869 39.561 2.40918 38.4075C3.30461 37.2592 4.5314 36.3814 6.08955 35.7744C7.64264 35.1673 9.39302 34.8638 11.3407 34.8638C12.8331 34.8638 14.1484 35.0788 15.2867 35.5088C16.4249 35.9388 17.4241 36.5256 18.2841 37.2693C19.1441 38.018 19.8776 38.8856 20.4847 39.8721C20.7882 40.378 20.9097 40.8586 20.849 41.3139C20.7832 41.7692 20.548 42.1233 20.1432 42.3763C19.6879 42.6292 19.2073 42.6722 18.7014 42.5053C18.1956 42.3434 17.8161 42.0474 17.5632 41.6174C17.1838 40.9345 16.7032 40.3401 16.1214 39.8342C15.5396 39.3283 14.8516 38.9236 14.0574 38.62C13.258 38.3165 12.3146 38.1647 11.2269 38.1647C9.32979 38.1394 7.75646 38.5113 6.50691 39.2802C5.25229 40.0542 4.62499 41.2001 4.62499 42.7178C4.62499 43.5272 4.83493 44.2784 5.25482 44.9715C5.66966 45.6696 6.4032 46.2767 7.45546 46.7927C8.50265 47.3138 9.9748 47.6755 11.8719 47.8779C14.9325 48.232 17.2799 49.1679 18.9139 50.6856C20.5429 52.2032 21.3574 54.1889 21.3574 56.6425C21.3574 58.059 21.0791 59.2984 20.5227 60.3608C19.9662 61.4231 19.2023 62.3135 18.231 63.0319C17.2546 63.7553 16.1416 64.2991 14.8921 64.6634C13.6375 65.0327 12.3272 65.2173 10.9613 65.2173ZM36.6859 64.9897C34.6118 64.9897 32.7652 64.5394 31.1464 63.6389C29.5275 62.7435 28.2628 61.5041 27.3522 59.9206C26.4416 58.3423 25.9863 56.5286 25.9863 54.4798C25.9863 52.4056 26.4163 50.5768 27.2763 48.9934C28.1363 47.415 29.3302 46.1755 30.858 45.275C32.3909 44.3796 34.1438 43.9319 36.1168 43.9319C38.0645 43.9319 39.7516 44.367 41.1782 45.2371C42.6099 46.1123 43.7052 47.3138 44.464 48.8416C45.2229 50.3744 45.6023 52.14 45.6023 54.1383C45.6023 54.5936 45.4505 54.9654 45.147 55.2538C44.8434 55.5472 44.4514 55.6939 43.9708 55.6939H28.4146V52.8483H44.0087L42.4151 53.9486C42.4151 52.608 42.1622 51.4141 41.6563 50.3669C41.1504 49.3146 40.4295 48.4849 39.4936 47.8779C38.5577 47.2708 37.4321 46.9673 36.1168 46.9673C34.675 46.9673 33.428 47.2885 32.3757 47.931C31.3285 48.5785 30.5317 49.4714 29.9854 50.6097C29.4441 51.7479 29.1734 53.038 29.1734 54.4798C29.1734 55.9216 29.4947 57.204 30.1371 58.3271C30.7847 59.4552 31.67 60.3405 32.7931 60.983C33.9212 61.6306 35.2188 61.9543 36.6859 61.9543C37.5206 61.9543 38.3604 61.8026 39.2053 61.499C40.0552 61.1955 40.7457 60.8414 41.2769 60.4366C41.631 60.1837 42.0104 60.0496 42.4151 60.0345C42.8199 60.0243 43.174 60.1458 43.4775 60.3987C43.8822 60.7528 44.0972 61.1373 44.1225 61.5521C44.1478 61.972 43.9581 62.3337 43.5534 62.6373C42.7187 63.3202 41.6563 63.8818 40.3663 64.3219C39.0763 64.7671 37.8495 64.9897 36.6859 64.9897ZM68.1398 64.8759C67.6339 64.8759 67.2089 64.7039 66.8649 64.3598C66.526 64.0209 66.3565 63.5985 66.3565 63.0926V53.5692C66.3565 52.1021 66.0833 50.893 65.537 49.9419C64.9957 48.9959 64.2495 48.2876 63.2984 47.8172C62.3524 47.3517 61.2849 47.119 60.0961 47.119C58.9578 47.119 57.9385 47.3467 57.038 47.802C56.1425 48.2573 55.4292 48.8644 54.898 49.6232C54.3669 50.382 54.1013 51.242 54.1013 52.2032H51.7868C51.8121 50.6097 52.2168 49.1856 53.0009 47.931C53.7851 46.6814 54.8475 45.6949 56.1881 44.9715C57.5287 44.2531 59.0337 43.894 60.7032 43.894C62.4485 43.894 64.0168 44.2658 65.408 45.0094C66.7992 45.7582 67.8995 46.8534 68.7089 48.2952C69.5183 49.737 69.923 51.495 69.923 53.5692V63.0926C69.923 63.5985 69.751 64.0209 69.407 64.3598C69.0681 64.7039 68.6457 64.8759 68.1398 64.8759ZM52.318 64.8759C51.7868 64.8759 51.3568 64.7039 51.028 64.3598C50.6991 64.0209 50.5347 63.5985 50.5347 63.0926V45.8669C50.5347 45.3357 50.6991 44.9057 51.028 44.5769C51.3568 44.2481 51.7868 44.0837 52.318 44.0837C52.8492 44.0837 53.2792 44.2481 53.608 44.5769C53.9368 44.9057 54.1013 45.3357 54.1013 45.8669V63.0926C54.1013 63.5985 53.9368 64.0209 53.608 64.3598C53.2792 64.7039 52.8492 64.8759 52.318 64.8759ZM85.7372 64.9897C83.7643 64.9897 81.9886 64.5268 80.4102 63.601C78.8267 62.6803 77.5747 61.4231 76.6539 59.8296C75.7282 58.236 75.2653 56.4401 75.2653 54.4418C75.2653 52.4435 75.6953 50.6527 76.5553 49.0692C77.4153 47.4909 78.5915 46.2388 80.0839 45.313C81.5763 44.3923 83.2584 43.9319 85.1302 43.9319C86.6984 43.9319 88.1352 44.2531 89.4404 44.8956C90.7405 45.5432 91.8079 46.4234 92.6427 47.5364V36.9885C92.6427 36.4573 92.8147 36.0273 93.1587 35.6985C93.4976 35.3697 93.92 35.2052 94.4259 35.2052C94.9571 35.2052 95.3871 35.3697 95.716 35.6985C96.0448 36.0273 96.2092 36.4573 96.2092 36.9885V54.4798C96.2092 56.478 95.7488 58.274 94.8281 59.8675C93.9023 61.4611 92.6503 62.7132 91.0719 63.6238C89.4884 64.5344 87.7102 64.9897 85.7372 64.9897ZM85.7372 61.8405C87.1031 61.8405 88.3122 61.5167 89.3645 60.8692C90.4117 60.2267 91.2464 59.3439 91.8687 58.2208C92.4858 57.0927 92.7944 55.833 92.7944 54.4418C92.7944 53.0253 92.4858 51.7656 91.8687 50.6628C91.2464 49.565 90.4117 48.6923 89.3645 48.0448C88.3122 47.4023 87.1031 47.0811 85.7372 47.0811C84.4219 47.0811 83.228 47.4023 82.1555 48.0448C81.078 48.6923 80.2306 49.565 79.6134 50.6628C78.9912 51.7656 78.68 53.0253 78.68 54.4418C78.68 55.833 78.9912 57.0927 79.6134 58.2208C80.2306 59.3439 81.078 60.2267 82.1555 60.8692C83.228 61.5167 84.4219 61.8405 85.7372 61.8405ZM112.676 64.9897C110.602 64.9897 108.755 64.5394 107.136 63.6389C105.518 62.7435 104.253 61.5041 103.342 59.9206C102.432 58.3423 101.976 56.5286 101.976 54.4798C101.976 52.4056 102.406 50.5768 103.266 48.9934C104.126 47.415 105.323 46.1755 106.856 45.275C108.384 44.3796 110.134 43.9319 112.107 43.9319C114.055 43.9319 115.744 44.367 117.176 45.2371C118.603 46.1123 119.695 47.3138 120.454 48.8416C121.213 50.3744 121.592 52.14 121.592 54.1383C121.592 54.5936 121.441 54.9654 121.137 55.2538C120.834 55.5472 120.441 55.6939 119.961 55.6939H104.405V52.8483H119.999L118.405 53.9486C118.405 52.608 118.152 51.4141 117.646 50.3669C117.141 49.3146 116.42 48.4849 115.484 47.8779C114.548 47.2708 113.422 46.9673 112.107 46.9673C110.665 46.9673 109.421 47.2885 108.373 47.931C107.321 48.5785 106.524 49.4714 105.983 50.6097C105.437 51.7479 105.164 53.038 105.164 54.4798C105.164 55.9216 105.487 57.204 106.135 58.3271C106.777 59.4552 107.663 60.3405 108.791 60.983C109.914 61.6306 111.209 61.9543 112.676 61.9543C113.511 61.9543 114.353 61.8026 115.203 61.499C116.048 61.1955 116.736 60.8414 117.267 60.4366C117.621 60.1837 118.001 60.0496 118.405 60.0345C118.81 60.0243 119.164 60.1458 119.468 60.3987C119.872 60.7528 120.087 61.1373 120.113 61.5521C120.138 61.972 119.948 62.3337 119.543 62.6373C118.709 63.3202 117.646 63.8818 116.356 64.3219C115.066 64.7671 113.84 64.9897 112.676 64.9897ZM130.015 51.9377H128.156C128.182 50.3947 128.566 49.0161 129.31 47.802C130.058 46.5878 131.058 45.6266 132.307 44.9184C133.562 44.2101 134.935 43.856 136.428 43.856C137.819 43.856 138.869 44.0761 139.577 44.5162C140.285 44.9614 140.563 45.5128 140.412 46.1705C140.31 46.5246 140.151 46.7902 139.934 46.9673C139.721 47.1443 139.463 47.2455 139.159 47.2708C138.856 47.2961 138.527 47.2708 138.173 47.1949C136.605 46.942 135.206 46.9799 133.977 47.3087C132.752 47.6376 131.786 48.194 131.078 48.9782C130.37 49.7623 130.015 50.7488 130.015 51.9377ZM128.27 64.8379C127.714 64.8379 127.284 64.6912 126.98 64.3978C126.677 64.1094 126.525 63.6744 126.525 63.0926V45.829C126.525 45.2725 126.677 44.8425 126.98 44.539C127.284 44.2354 127.714 44.0837 128.27 44.0837C128.852 44.0837 129.287 44.2278 129.575 44.5162C129.869 44.8096 130.015 45.2472 130.015 45.829V63.0926C130.015 63.6491 129.869 64.0791 129.575 64.3826C129.287 64.6861 128.852 64.8379 128.27 64.8379ZM152.06 64.9897C150.39 64.9897 148.809 64.7241 147.317 64.1929C145.825 63.6617 144.648 62.9535 143.788 62.0682C143.434 61.6887 143.288 61.2638 143.348 60.7933C143.414 60.3279 143.649 59.9434 144.054 59.6399C144.509 59.2857 144.965 59.134 145.42 59.1846C145.875 59.2352 146.255 59.4375 146.558 59.7916C147.064 60.3481 147.798 60.8287 148.759 61.2334C149.72 61.6381 150.795 61.8405 151.984 61.8405C153.577 61.8405 154.771 61.5749 155.566 61.0437C156.365 60.5125 156.777 59.8422 156.802 59.0328C156.802 58.2234 156.41 57.5328 155.626 56.9612C154.842 56.3946 153.464 55.9342 151.491 55.5801C148.936 55.0995 147.077 54.3533 145.913 53.3415C144.75 52.3297 144.168 51.1029 144.168 49.6611C144.168 48.3711 144.535 47.3011 145.268 46.4512C146.002 45.6064 146.955 44.974 148.129 44.5541C149.308 44.1393 150.555 43.9319 151.87 43.9319C153.539 43.9319 155.012 44.2025 156.286 44.7439C157.566 45.2902 158.586 46.044 159.345 47.0052C159.648 47.3846 159.787 47.7767 159.762 48.1814C159.737 48.5861 159.522 48.9276 159.117 49.2058C158.763 49.4588 158.333 49.5397 157.827 49.4487C157.321 49.3627 156.891 49.1552 156.537 48.8264C155.905 48.1687 155.209 47.7059 154.45 47.4377C153.691 47.1747 152.806 47.0431 151.794 47.0431C150.58 47.0431 149.581 47.2632 148.797 47.7033C148.013 48.1485 147.621 48.7632 147.621 49.5473C147.621 50.0279 147.752 50.463 148.015 50.8525C148.283 51.2471 148.776 51.5962 149.495 51.8997C150.218 52.2032 151.276 52.4815 152.667 52.7344C154.564 53.0886 156.061 53.5616 157.159 54.1535C158.262 54.7504 159.046 55.4334 159.512 56.2023C159.982 56.9763 160.217 57.8566 160.217 58.8431C160.217 60.0319 159.893 61.0867 159.246 62.0074C158.603 62.9332 157.68 63.6617 156.476 64.1929C155.277 64.7241 153.805 64.9897 152.06 64.9897Z" fill="#3361FF"/>
</g>
</g>
</g>
</g>
</g>
</g>
</g>
</g>
</g>
</g>
</g>
<defs>
<clipPath id="clip0_102_108">
<rect width="160.513" height="100" fill="white"/>
</clipPath>
<clipPath id="clip1_102_108">
<rect width="160.513" height="100" fill="white" transform="translate(-0.09729 0.0405273)"/>
</clipPath>
<clipPath id="clip2_102_108">
<rect width="160.129" height="100.081" fill="white" transform="translate(0.0947266)"/>
</clipPath>
<clipPath id="clip3_102_108">
<rect width="160.129" height="100.081" fill="white" transform="translate(0.0947266)"/>
</clipPath>
<clipPath id="clip4_102_108">
<rect width="160.129" height="30.3536" fill="white" transform="translate(0.0947266 34.8638)"/>
</clipPath>
<clipPath id="clip5_102_108">
<rect width="160.129" height="30.3536" fill="white" transform="translate(0.0947266 34.8638)"/>
</clipPath>
<clipPath id="clip6_102_108">
<rect width="160.129" height="30.3536" fill="white" transform="translate(0.0947266 34.8638)"/>
</clipPath>
<clipPath id="clip7_102_108">
<rect width="160.129" height="30.3536" fill="white" transform="translate(0.0947266 34.8638)"/>
</clipPath>
<clipPath id="clip8_102_108">
<rect width="160.129" height="30.3536" fill="white" transform="translate(0.0947266 34.8638)"/>
</clipPath>
<clipPath id="clip9_102_108">
<rect width="160.129" height="30.3536" fill="white" transform="translate(0.0947266 34.8638)"/>
</clipPath>
<clipPath id="clip10_102_108">
<rect width="160.129" height="30.3536" fill="white" transform="translate(0.0947266 34.8638)"/>
</clipPath>
</defs>
</svg>
